<svg xmlns="http://www.w3.org/2000/svg" width="680" height="540" font-family="Georgia, serif">
  <text x="340" y="36" text-anchor="middle" font-size="16" font-weight="bold" fill="#222">Price ceiling: welfare effects</text>

  <!-- Welfare areas (drawn first). Quantity traded = Qs = 242 (short side) -->
  <!-- Consumer surplus -->
  <polygon points="90,90 242,200 242,320 90,320" fill="#2E86C1" fill-opacity="0.22"/>
  <!-- Producer surplus -->
  <polygon points="90,320 242,320 90,430" fill="#E67E22" fill-opacity="0.22"/>
  <!-- Deadweight loss -->
  <polygon points="242,200 242,320 325,260" fill="#C0392B" fill-opacity="0.2"/>

  <!-- Axes -->
  <line x1="90" y1="60" x2="90" y2="470" stroke="#333" stroke-width="2"/>
  <line x1="90" y1="470" x2="610" y2="470" stroke="#333" stroke-width="2"/>
  <text transform="rotate(-90 30 140)" x="30" y="140" text-anchor="middle" font-size="13" fill="#333">Price ($/unit)</text>
  <text x="608" y="492" text-anchor="end" font-size="13" fill="#333">Quantity (units/week)</text>

  <!-- Demand and supply -->
  <line x1="90" y1="90" x2="560" y2="430" stroke="#14746F" stroke-width="2.5"/>
  <text x="566" y="432" font-size="14" fill="#14746F">Demand</text>
  <line x1="90" y1="430" x2="560" y2="90" stroke="#0D5C57" stroke-width="2.5"/>
  <text x="566" y="92" font-size="14" fill="#0D5C57">Supply</text>

  <!-- Original equilibrium (lost) -->
  <line x1="90" y1="260" x2="325" y2="260" stroke="#aaa" stroke-width="1" stroke-dasharray="4,4"/>
  <line x1="325" y1="260" x2="325" y2="470" stroke="#aaa" stroke-width="1" stroke-dasharray="4,4"/>
  <circle cx="325" cy="260" r="4" fill="#333"/>
  <text x="78" y="264" text-anchor="end" font-size="12" fill="#555">Pe</text>
  <text x="325" y="492" text-anchor="middle" font-size="12" fill="#555">Qe</text>

  <!-- Price ceiling and traded quantity -->
  <line x1="90" y1="320" x2="470" y2="320" stroke="#7D3C98" stroke-width="2.5"/>
  <text x="476" y="324" font-size="13" font-weight="bold" fill="#7D3C98">Price ceiling</text>
  <text x="78" y="324" text-anchor="end" font-size="12" font-weight="bold" fill="#7D3C98">Pc</text>
  <line x1="242" y1="200" x2="242" y2="470" stroke="#888" stroke-width="1.1" stroke-dasharray="5,4"/>
  <circle cx="242" cy="320" r="4" fill="#0D5C57"/>
  <text x="242" y="492" text-anchor="middle" font-size="12" fill="#333">Q&#8321;</text>

  <!-- Area labels -->
  <text x="150" y="225" text-anchor="middle" font-size="11" font-weight="bold" fill="#21618C">Consumer</text>
  <text x="150" y="241" text-anchor="middle" font-size="11" font-weight="bold" fill="#21618C">surplus</text>
  <text x="148" y="378" text-anchor="middle" font-size="11" font-weight="bold" fill="#B9591A">Producer</text>
  <text x="148" y="394" text-anchor="middle" font-size="11" font-weight="bold" fill="#B9591A">surplus</text>
  <text x="300" y="262" text-anchor="middle" font-size="11" font-weight="bold" fill="#C0392B">DWL</text>
</svg>
